<svg xmlns="http://www.w3.org/2000/svg" xmlns:xlink="http://www.w3.org/1999/xlink" id="Calque_1" x="0px" y="0px" viewBox="0 0 640 480" style="enable-background:new 0 0 640 480;" xml:space="preserve">
<style type="text/css">
	.st0{fill:#FFFFFF;}
</style>
<g>
	<path class="st0" d="M320,165c-51.4,0-93.2,42.4-93.2,94.6V335c0,52.2,41.8,94.6,93.2,94.6c51.4,0,93.2-42.3,93.2-94.3v-75.6   C413.2,207.4,371.4,165,320,165L320,165z M395.6,335.3c0,42.4-33.9,76.8-75.6,76.8s-75.6-34.6-75.6-77.1v-75.4   c0-42.5,33.9-77.1,75.6-77.1s75.6,34.6,75.6,77.1V335.3z"></path>
	<path class="st0" d="M320,237.4c-4.8,0-8.8,3.9-8.8,8.8v30.7c0,4.8,3.9,8.8,8.8,8.8s8.8-3.9,8.8-8.8v-30.7   C328.8,241.4,324.8,237.4,320,237.4L320,237.4z"></path>
</g>
</svg>